# xmcd CD database file
#
# Track frame offsets:
#	150
#	27871
#	61053
#	94571
#	98189
#	120177
#	149404
#	170558
#	178462
#	214333
#
# Disc length: 3258 seconds
#
# Revision: 0
# Processed by: cddbd v1.5.2PL0 Copyright (c) Steve Scherf et al.
# Submitted via: CDex 1.51
#
DISCID=880cb80a
DTITLE=Anahata - What Lightning Flash
DYEAR=2006
DGENRE=New Age
TTITLE0=What Lightning Flash
TTITLE1=Om Tare
TTITLE2=Why Do They Tell Me
TTITLE3=Mantra
TTITLE4=Jayambe
TTITLE5=Ancient Mother
TTITLE6=Shiina
TTITLE7=Do Not Dry
TTITLE8=Wink
TTITLE9=Jai Devi
EXTD=YEAR: 2006
EXTT0=
EXTT1=
EXTT2=
EXTT3=
EXTT4=
EXTT5=
EXTT6=
EXTT7=
EXTT8=
EXTT9=
PLAYORDER=
